Asap-Regular.ufo
<glyph name="exclam" format="1">
  <advance width="294"/>
  <unicode hex="0021"/>
  <outline>
    <contour>
      <point x="152" y="702" type="line" smooth="yes"/>
      <point x="124" y="702"/>
      <point x="112" y="694"/>
      <point x="112" y="680" type="curve" smooth="yes"/>
      <point x="112" y="224" type="line" smooth="yes"/>
      <point x="112" y="210"/>
      <point x="121" y="202"/>
      <point x="142" y="202" type="curve"/>
      <point x="153" y="202" type="line" smooth="yes"/>
      <point x="174" y="202"/>
      <point x="183" y="210"/>
      <point x="184" y="224" type="curve" smooth="yes"/>
      <point x="193" y="376"/>
      <point x="202" y="528"/>
      <point x="211" y="680" type="curve"/>
      <point x="211" y="694"/>
      <point x="200" y="702"/>
      <point x="172" y="702" type="curve" smooth="yes"/>
    </contour>
    <contour>
      <point x="140" y="108" type="line" smooth="yes"/>
      <point x="112" y="108"/>
      <point x="100" y="100"/>
      <point x="100" y="86" type="curve" smooth="yes"/>
      <point x="100" y="20" type="line" smooth="yes"/>
      <point x="100" y="6"/>
      <point x="112" y="-2"/>
      <point x="140" y="-2" type="curve" smooth="yes"/>
      <point x="157" y="-2" type="line" smooth="yes"/>
      <point x="185" y="-2"/>
      <point x="197" y="6"/>
      <point x="197" y="20" type="curve" smooth="yes"/>
      <point x="197" y="86" type="line" smooth="yes"/>
      <point x="197" y="100"/>
      <point x="185" y="108"/>
      <point x="157" y="108" type="curve" smooth="yes"/>
    </contour>
  </outline>
</glyph>
<glyph name="numbersign" format="1">
  <advance width="534"/>
  <unicode hex="0023"/>
  <outline>
    <contour>
      <point x="430" y="686" type="line" smooth="yes"/>
      <point x="392" y="686"/>
      <point x="388" y="678"/>
      <point x="386" y="664" type="curve" smooth="yes"/>
      <point x="356" y="497" type="line"/>
      <point x="237" y="497" type="line"/>
      <point x="270" y="671" type="line"/>
      <point x="270" y="680"/>
      <point x="261" y="686"/>
      <point x="242" y="686" type="curve" smooth="yes"/>
      <point x="238" y="686" type="line" smooth="yes"/>
      <point x="200" y="686"/>
      <point x="196" y="678"/>
      <point x="194" y="664" type="curve" smooth="yes"/>
      <point x="163" y="497" type="line"/>
      <point x="69" y="497" type="line" smooth="yes"/>
      <point x="55" y="497"/>
      <point x="49" y="488"/>
      <point x="49" y="467" type="curve" smooth="yes"/>
      <point x="49" y="450" type="line" smooth="yes"/>
      <point x="49" y="429"/>
      <point x="55" y="420"/>
      <point x="69" y="420" type="curve" smooth="yes"/>
      <point x="150" y="420" type="line"/>
      <point x="124" y="273" type="line"/>
      <point x="33" y="273" type="line" smooth="yes"/>
      <point x="19" y="273"/>
      <point x="13" y="264"/>
      <point x="13" y="243" type="curve" smooth="yes"/>
      <point x="13" y="226" type="line" smooth="yes"/>
      <point x="13" y="205"/>
      <point x="19" y="196"/>
      <point x="33" y="196" type="curve" smooth="yes"/>
      <point x="109" y="196" type="line"/>
      <point x="82" y="47"/>
      <point x="77" y="22"/>
      <point x="77" y="15" type="curve" smooth="yes"/>
      <point x="77" y="2"/>
      <point x="86" y="-2"/>
      <point x="105" y="-2" type="curve" smooth="yes"/>
      <point x="109" y="-2" type="line" smooth="yes"/>
      <point x="145" y="-2"/>
      <point x="149" y="6"/>
      <point x="152" y="20" type="curve" smooth="yes"/>
      <point x="184" y="196" type="line"/>
      <point x="302" y="196" type="line"/>
      <point x="275" y="47"/>
      <point x="270" y="22"/>
      <point x="270" y="15" type="curve" smooth="yes"/>
      <point x="270" y="2"/>
      <point x="279" y="-2"/>
      <point x="298" y="-2" type="curve" smooth="yes"/>
      <point x="302" y="-2" type="line" smooth="yes"/>
      <point x="336" y="-2"/>
      <point x="342" y="6"/>
      <point x="345" y="20" type="curve" smooth="yes"/>
      <point x="376" y="196" type="line"/>
      <point x="468" y="196" type="line" smooth="yes"/>
      <point x="482" y="196"/>
      <point x="488" y="205"/>
      <point x="488" y="226" type="curve" smooth="yes"/>
      <point x="488" y="243" type="line" smooth="yes"/>
      <point x="488" y="264"/>
      <point x="482" y="273"/>
      <point x="468" y="273" type="curve" smooth="yes"/>
      <point x="392" y="273" type="line"/>
      <point x="417" y="420" type="line"/>
      <point x="500" y="420" type="line" smooth="yes"/>
      <point x="514" y="420"/>
      <point x="520" y="429"/>
      <point x="520" y="450" type="curve" smooth="yes"/>
      <point x="520" y="467" type="line" smooth="yes"/>
      <point x="520" y="488"/>
      <point x="514" y="497"/>
      <point x="500" y="497" type="curve" smooth="yes"/>
      <point x="432" y="497" type="line"/>
      <point x="463" y="671" type="line"/>
      <point x="463" y="680"/>
      <point x="454" y="686"/>
      <point x="435" y="686" type="curve" smooth="yes"/>
    </contour>
    <contour>
      <point x="317" y="273" type="line"/>
      <point x="199" y="273" type="line"/>
      <point x="225" y="420" type="line"/>
      <point x="343" y="420" type="line"/>
    </contour>
  </outline>
</glyph>
<glyph name="G" format="1">
  <advance width="672"/>
  <unicode hex="0047"/>
  <outline>
    <contour>
      <point x="172" y="706"/>
      <point x="57" y="593"/>
      <point x="57" y="344" type="curve" smooth="yes"/>
      <point x="57" y="106"/>
      <point x="167" y="-6"/>
      <point x="366" y="-6" type="curve" smooth="yes"/>
      <point x="480" y="-6"/>
      <point x="589" y="10"/>
      <point x="589" y="66" type="curve" smooth="yes"/>
      <point x="589" y="331" type="line" smooth="yes"/>
      <point x="589" y="352"/>
      <point x="580" y="361"/>
      <point x="559" y="361" type="curve" smooth="yes"/>
      <point x="384" y="361" type="line" smooth="yes"/>
      <point x="370" y="361"/>
      <point x="364" y="352"/>
      <point x="364" y="331" type="curve" smooth="yes"/>
      <point x="364" y="315" type="line" smooth="yes"/>
      <point x="364" y="294"/>
      <point x="370" y="285"/>
      <point x="384" y="285" type="curve" smooth="yes"/>
      <point x="501" y="285" type="line"/>
      <point x="501" y="83" type="line"/>
      <point x="474" y="76"/>
      <point x="424" y="70"/>
      <point x="372" y="70" type="curve" smooth="yes"/>
      <point x="194" y="70"/>
      <point x="148" y="200"/>
      <point x="148" y="353" type="curve" smooth="yes"/>
      <point x="148" y="527"/>
      <point x="206" y="630"/>
      <point x="383" y="630" type="curve" smooth="yes"/>
      <point x="479" y="630"/>
      <point x="527" y="586"/>
      <point x="538" y="586" type="curve" smooth="yes"/>
      <point x="551" y="586"/>
      <point x="572" y="627"/>
      <point x="572" y="644" type="curve" smooth="yes"/>
      <point x="572" y="671"/>
      <point x="480" y="706"/>
      <point x="381" y="706" type="curve" smooth="yes"/>
    </contour>
    <contour>
      <point x="336" y="700" type="move" name="top"/>
    </contour>
    <contour>
      <point x="387" y="0" type="move" name="bottom"/>
    </contour>
  </outline>
</glyph>
<glyph name="H" format="1">
  <advance width="733"/>
  <unicode hex="0048"/>
  <outline>
    <contour>
      <point x="587" y="702" type="line" smooth="yes"/>
      <point x="559" y="702"/>
      <point x="547" y="694"/>
      <point x="547" y="680" type="curve" smooth="yes"/>
      <point x="547" y="397" type="line"/>
      <point x="185" y="397" type="line"/>
      <point x="185" y="680" type="line" smooth="yes"/>
      <point x="185" y="694"/>
      <point x="173" y="702"/>
      <point x="145" y="702" type="curve" smooth="yes"/>
      <point x="137" y="702" type="line" smooth="yes"/>
      <point x="109" y="702"/>
      <point x="97" y="694"/>
      <point x="97" y="680" type="curve" smooth="yes"/>
      <point x="97" y="20" type="line" smooth="yes"/>
      <point x="97" y="6"/>
      <point x="109" y="-2"/>
      <point x="137" y="-2" type="curve" smooth="yes"/>
      <point x="145" y="-2" type="line" smooth="yes"/>
      <point x="173" y="-2"/>
      <point x="185" y="6"/>
      <point x="185" y="20" type="curve" smooth="yes"/>
      <point x="185" y="321" type="line"/>
      <point x="547" y="321" type="line"/>
      <point x="547" y="20" type="line" smooth="yes"/>
      <point x="547" y="6"/>
      <point x="559" y="-2"/>
      <point x="587" y="-2" type="curve" smooth="yes"/>
      <point x="595" y="-2" type="line" smooth="yes"/>
      <point x="623" y="-2"/>
      <point x="635" y="6"/>
      <point x="635" y="20" type="curve" smooth="yes"/>
      <point x="635" y="680" type="line" smooth="yes"/>
      <point x="635" y="694"/>
      <point x="623" y="702"/>
      <point x="595" y="702" type="curve" smooth="yes"/>
    </contour>
    <contour>
      <point x="372" y="523" type="move" name="center"/>
    </contour>
    <contour>
      <point x="376" y="0" type="move" name="bottom"/>
    </contour>
    <contour>
      <point x="367" y="700" type="move" name="top"/>
    </contour>
  </outline>
</glyph>
<glyph name="I" format="1">
  <advance width="282"/>
  <unicode hex="0049"/>
  <outline>
    <contour>
      <point x="137" y="702" type="line" smooth="yes"/>
      <point x="109" y="702"/>
      <point x="97" y="694"/>
      <point x="97" y="680" type="curve" smooth="yes"/>
      <point x="97" y="20" type="line" smooth="yes"/>
      <point x="97" y="6"/>
      <point x="109" y="-2"/>
      <point x="137" y="-2" type="curve" smooth="yes"/>
      <point x="145" y="-2" type="line" smooth="yes"/>
      <point x="173" y="-2"/>
      <point x="185" y="6"/>
      <point x="185" y="20" type="curve" smooth="yes"/>
      <point x="185" y="680" type="line" smooth="yes"/>
      <point x="185" y="694"/>
      <point x="173" y="702"/>
      <point x="145" y="702" type="curve" smooth="yes"/>
    </contour>
    <contour>
      <point x="166" y="0" type="move" name="ogonek"/>
    </contour>
    <contour>
      <point x="140" y="0" type="move" name="bottom"/>
    </contour>
    <contour>
      <point x="141" y="700" type="move" name="top"/>
    </contour>
  </outline>
</glyph>
<glyph name="L" format="1">
  <advance width="484"/>
  <unicode hex="004C"/>
  <outline>
    <contour>
      <point x="137" y="702" type="line" smooth="yes"/>
      <point x="109" y="702"/>
      <point x="97" y="694"/>
      <point x="97" y="680" type="curve" smooth="yes"/>
      <point x="97" y="30" type="line" smooth="yes"/>
      <point x="97" y="9"/>
      <point x="106" y="0"/>
      <point x="127" y="0" type="curve" smooth="yes"/>
      <point x="460" y="0" type="line" smooth="yes"/>
      <point x="474" y="0"/>
      <point x="480" y="9"/>
      <point x="480" y="30" type="curve" smooth="yes"/>
      <point x="480" y="46" type="line" smooth="yes"/>
      <point x="480" y="67"/>
      <point x="474" y="76"/>
      <point x="460" y="76" type="curve" smooth="yes"/>
      <point x="185" y="76" type="line"/>
      <point x="185" y="680" type="line" smooth="yes"/>
      <point x="185" y="694"/>
      <point x="173" y="702"/>
      <point x="145" y="702" type="curve" smooth="yes"/>
    </contour>
    <contour>
      <point x="300" y="335" type="move" name="center"/>
    </contour>
    <contour>
      <point x="245" y="700" type="move" name="caron"/>
    </contour>
    <contour>
      <point x="145" y="702" type="move" name="top"/>
    </contour>
    <contour>
      <point x="282" y="0" type="move" name="bottom"/>
    </contour>
  </outline>
</glyph>
<glyph name="O" format="1">
  <advance width="731"/>
  <unicode hex="004F"/>
  <outline>
    <contour>
      <point x="165" y="706"/>
      <point x="57" y="586"/>
      <point x="57" y="352" type="curve" smooth="yes"/>
      <point x="57" y="118"/>
      <point x="165" y="-6"/>
      <point x="365" y="-6" type="curve" smooth="yes"/>
      <point x="566" y="-6"/>
      <point x="674" y="118"/>
      <point x="674" y="352" type="curve" smooth="yes"/>
      <point x="674" y="586"/>
      <point x="566" y="706"/>
      <point x="365" y="706" type="curve" smooth="yes"/>
    </contour>
    <contour>
      <point x="506" y="630"/>
      <point x="583" y="536"/>
      <point x="583" y="352" type="curve" smooth="yes"/>
      <point x="583" y="168"/>
      <point x="506" y="70"/>
      <point x="365" y="70" type="curve" smooth="yes"/>
      <point x="224" y="70"/>
      <point x="148" y="168"/>
      <point x="148" y="352" type="curve" smooth="yes"/>
      <point x="148" y="536"/>
      <point x="224" y="630"/>
      <point x="365" y="630" type="curve" smooth="yes"/>
    </contour>
    <contour>
      <point x="443" y="0" type="move" name="ogonek"/>
    </contour>
    <contour>
      <point x="366" y="700" type="move" name="top"/>
    </contour>
    <contour>
      <point x="482" y="682" type="move" name="horn"/>
    </contour>
    <contour>
      <point x="367" y="0" type="move" name="bottom"/>
    </contour>
  </outline>
</glyph>
<glyph name="Q" format="1">
  <advance width="731"/>
  <unicode hex="0051"/>
  <outline>
    <contour>
      <point x="165" y="706"/>
      <point x="57" y="582"/>
      <point x="57" y="347" type="curve" smooth="yes"/>
      <point x="57" y="168"/>
      <point x="120" y="56"/>
      <point x="246" y="6" type="curve" smooth="yes"/>
      <point x="275" y="-6"/>
      <point x="630" y="-148"/>
      <point x="642" y="-148" type="curve" smooth="yes"/>
      <point x="665" y="-148"/>
      <point x="684" y="-88"/>
      <point x="684" y="-76" type="curve" smooth="yes"/>
      <point x="684" y="-69"/>
      <point x="679" y="-64"/>
      <point x="670" y="-61" type="curve" smooth="yes"/>
      <point x="473" y="1" type="line"/>
      <point x="473" y="5" type="line"/>
      <point x="603" y="40"/>
      <point x="674" y="157"/>
      <point x="674" y="347" type="curve" smooth="yes"/>
      <point x="674" y="581"/>
      <point x="566" y="706"/>
      <point x="365" y="706" type="curve" smooth="yes"/>
    </contour>
    <contour>
      <point x="504" y="630"/>
      <point x="583" y="529"/>
      <point x="583" y="347" type="curve" smooth="yes"/>
      <point x="583" y="166"/>
      <point x="504" y="67"/>
      <point x="365" y="67" type="curve" smooth="yes"/>
      <point x="227" y="67"/>
      <point x="148" y="165"/>
      <point x="148" y="347" type="curve" smooth="yes"/>
      <point x="148" y="530"/>
      <point x="227" y="630"/>
      <point x="365" y="630" type="curve" smooth="yes"/>
    </contour>
  </outline>
</glyph>
<glyph name="S" format="1">
  <advance width="500"/>
  <unicode hex="0053"/>
  <outline>
    <contour>
      <point x="138" y="706"/>
      <point x="50" y="629"/>
      <point x="50" y="521" type="curve" smooth="yes"/>
      <point x="50" y="390"/>
      <point x="139" y="357"/>
      <point x="224" y="324" type="curve" smooth="yes"/>
      <point x="301" y="294"/>
      <point x="375" y="268"/>
      <point x="375" y="188" type="curve" smooth="yes"/>
      <point x="375" y="117"/>
      <point x="320" y="70"/>
      <point x="244" y="70" type="curve" smooth="yes"/>
      <point x="141" y="70"/>
      <point x="85" y="121"/>
      <point x="72" y="121" type="curve" smooth="yes"/>
      <point x="61" y="121"/>
      <point x="37" y="83"/>
      <point x="37" y="67" type="curve" smooth="yes"/>
      <point x="37" y="40"/>
      <point x="127" y="-6"/>
      <point x="244" y="-6" type="curve" smooth="yes"/>
      <point x="379" y="-6"/>
      <point x="466" y="68"/>
      <point x="466" y="188" type="curve" smooth="yes"/>
      <point x="466" y="324"/>
      <point x="366" y="364"/>
      <point x="277" y="398" type="curve" smooth="yes"/>
      <point x="205" y="425"/>
      <point x="141" y="444"/>
      <point x="141" y="517" type="curve" smooth="yes"/>
      <point x="141" y="590"/>
      <point x="195" y="630"/>
      <point x="270" y="630" type="curve" smooth="yes"/>
      <point x="349" y="630"/>
      <point x="386" y="592"/>
      <point x="401" y="592" type="curve" smooth="yes"/>
      <point x="411" y="592"/>
      <point x="433" y="630"/>
      <point x="433" y="645" type="curve" smooth="yes"/>
      <point x="433" y="681"/>
      <point x="329" y="706"/>
      <point x="272" y="706" type="curve" smooth="yes"/>
    </contour>
    <contour>
      <point x="250" y="700" type="move" name="top"/>
    </contour>
    <contour>
      <point x="250" y="0" type="move" name="bottom"/>
    </contour>
  </outline>
</glyph>
<glyph name="e" format="1">
  <advance width="539"/>
  <unicode hex="0065"/>
  <outline>
    <contour>
      <point x="135" y="529"/>
      <point x="55" y="435"/>
      <point x="55" y="258" type="curve" smooth="yes"/>
      <point x="55" y="79"/>
      <point x="134" y="-6"/>
      <point x="300" y="-6" type="curve" smooth="yes"/>
      <point x="401" y="-6"/>
      <point x="480" y="34"/>
      <point x="480" y="58" type="curve" smooth="yes"/>
      <point x="480" y="69"/>
      <point x="459" y="108"/>
      <point x="445" y="108" type="curve" smooth="yes"/>
      <point x="435" y="108"/>
      <point x="386" y="66"/>
      <point x="299" y="66" type="curve" smooth="yes"/>
      <point x="200" y="66"/>
      <point x="153" y="116"/>
      <point x="145" y="227" type="curve"/>
      <point x="461" y="227" type="line" smooth="yes"/>
      <point x="473" y="227"/>
      <point x="494" y="256"/>
      <point x="494" y="268" type="curve" smooth="yes"/>
      <point x="494" y="438"/>
      <point x="425" y="529"/>
      <point x="288" y="529" type="curve" smooth="yes"/>
    </contour>
    <contour>
      <point x="365" y="457"/>
      <point x="405" y="404"/>
      <point x="405" y="299" type="curve"/>
      <point x="145" y="299" type="line"/>
      <point x="152" y="404"/>
      <point x="198" y="457"/>
      <point x="285" y="457" type="curve" smooth="yes"/>
    </contour>
    <contour>
      <point x="433" y="10" type="move" name="ogonek"/>
    </contour>
    <contour>
      <point x="270" y="0" type="move" name="bottom"/>
    </contour>
    <contour>
      <point x="270" y="523" type="move" name="top"/>
    </contour>
  </outline>
</glyph>
<glyph name="p" format="1">
  <advance width="573"/>
  <unicode hex="0070"/>
  <outline>
    <contour>
      <point x="265" y="529"/>
      <point x="212" y="505"/>
      <point x="163" y="454" type="curve"/>
      <point x="157" y="480"/>
      <point x="152" y="520"/>
      <point x="128" y="520" type="curve" smooth="yes"/>
      <point x="115" y="520"/>
      <point x="74" y="516"/>
      <point x="74" y="497" type="curve" smooth="yes"/>
      <point x="74" y="492"/>
      <point x="86" y="453"/>
      <point x="86" y="371" type="curve" smooth="yes"/>
      <point x="86" y="-186" type="line" smooth="yes"/>
      <point x="86" y="-200"/>
      <point x="98" y="-208"/>
      <point x="126" y="-208" type="curve" smooth="yes"/>
      <point x="130" y="-208" type="line" smooth="yes"/>
      <point x="158" y="-208"/>
      <point x="170" y="-200"/>
      <point x="170" y="-186" type="curve" smooth="yes"/>
      <point x="170" y="45" type="line"/>
      <point x="209" y="15"/>
      <point x="251" y="-6"/>
      <point x="313" y="-6" type="curve" smooth="yes"/>
      <point x="432" y="-6"/>
      <point x="516" y="88"/>
      <point x="516" y="261" type="curve" smooth="yes"/>
      <point x="516" y="415"/>
      <point x="446" y="529"/>
      <point x="322" y="529" type="curve" smooth="yes"/>
    </contour>
    <contour>
      <point x="384" y="456"/>
      <point x="428" y="383"/>
      <point x="428" y="254" type="curve" smooth="yes"/>
      <point x="428" y="135"/>
      <point x="383" y="70"/>
      <point x="294" y="68" type="curve" smooth="yes"/>
      <point x="248" y="68"/>
      <point x="206" y="83"/>
      <point x="170" y="113" type="curve"/>
      <point x="170" y="387" type="line"/>
      <point x="211" y="432"/>
      <point x="261" y="456"/>
      <point x="305" y="456" type="curve" smooth="yes"/>
    </contour>
  </outline>
</glyph>
<glyph name="q" format="1">
  <advance width="566"/>
  <unicode hex="0071"/>
  <outline>
    <contour>
      <point x="126" y="529"/>
      <point x="52" y="417"/>
      <point x="52" y="260" type="curve" smooth="yes"/>
      <point x="52" y="88"/>
      <point x="136" y="-6"/>
      <point x="255" y="-6" type="curve" smooth="yes"/>
      <point x="317" y="-6"/>
      <point x="359" y="15"/>
      <point x="398" y="45" type="curve"/>
      <point x="398" y="-186" type="line" smooth="yes"/>
      <point x="398" y="-200"/>
      <point x="410" y="-208"/>
      <point x="438" y="-208" type="curve" smooth="yes"/>
      <point x="442" y="-208" type="line" smooth="yes"/>
      <point x="470" y="-208"/>
      <point x="482" y="-200"/>
      <point x="482" y="-186" type="curve" smooth="yes"/>
      <point x="482" y="503" type="line" smooth="yes"/>
      <point x="482" y="517"/>
      <point x="473" y="525"/>
      <point x="452" y="525" type="curve" smooth="yes"/>
      <point x="448" y="525" type="line" smooth="yes"/>
      <point x="434" y="525"/>
      <point x="425" y="522"/>
      <point x="421" y="513" type="curve" smooth="yes"/>
      <point x="413" y="493"/>
      <point x="409" y="474"/>
      <point x="405" y="454" type="curve"/>
      <point x="356" y="505"/>
      <point x="303" y="529"/>
      <point x="246" y="529" type="curve" smooth="yes"/>
    </contour>
    <contour>
      <point x="307" y="456"/>
      <point x="357" y="432"/>
      <point x="398" y="387" type="curve"/>
      <point x="398" y="113" type="line"/>
      <point x="362" y="83"/>
      <point x="320" y="68"/>
      <point x="274" y="68" type="curve" smooth="yes"/>
      <point x="185" y="70"/>
      <point x="140" y="135"/>
      <point x="140" y="254" type="curve" smooth="yes"/>
      <point x="140" y="383"/>
      <point x="184" y="456"/>
      <point x="263" y="456" type="curve" smooth="yes"/>
    </contour>
  </outline>
</glyph>
<glyph name="uni00B2" format="1">
  <advance width="320"/>
  <unicode hex="00B2"/>
  <outline>
    <contour>
      <point x="117" y="705"/>
      <point x="48" y="687"/>
      <point x="48" y="663" type="curve" smooth="yes"/>
      <point x="48" y="654"/>
      <point x="61" y="634"/>
      <point x="67" y="634" type="curve" smooth="yes"/>
      <point x="77" y="634"/>
      <point x="101" y="663"/>
      <point x="153" y="663" type="curve" smooth="yes"/>
      <point x="198" y="663"/>
      <point x="225" y="640"/>
      <point x="225" y="604" type="curve" smooth="yes"/>
      <point x="225" y="580"/>
      <point x="222" y="569"/>
      <point x="186" y="520" type="curve"/>
      <point x="37" y="333" type="line"/>
      <point x="36" y="331"/>
      <point x="35" y="327"/>
      <point x="35" y="323" type="curve" smooth="yes"/>
      <point x="35" y="312"/>
      <point x="40" y="298"/>
      <point x="47" y="298" type="curve"/>
      <point x="267" y="298" type="line" smooth="yes"/>
      <point x="275" y="298"/>
      <point x="278" y="303"/>
      <point x="278" y="315" type="curve" smooth="yes"/>
      <point x="278" y="322" type="line" smooth="yes"/>
      <point x="278" y="334"/>
      <point x="275" y="339"/>
      <point x="267" y="339" type="curve" smooth="yes"/>
      <point x="101" y="339" type="line"/>
      <point x="215" y="479" type="line"/>
      <point x="266" y="545"/>
      <point x="275" y="567"/>
      <point x="275" y="607" type="curve" smooth="yes"/>
      <point x="275" y="668"/>
      <point x="228" y="705"/>
      <point x="152" y="705" type="curve" smooth="yes"/>
    </contour>
  </outline>
</glyph>
<glyph name="ordmasculine" format="1">
  <advance width="337"/>
  <unicode hex="00BA"/>
  <outline>
    <contour>
      <point x="96" y="706"/>
      <point x="55" y="658"/>
      <point x="55" y="572" type="curve" smooth="yes"/>
      <point x="55" y="487"/>
      <point x="95" y="441"/>
      <point x="170" y="441" type="curve" smooth="yes"/>
      <point x="243" y="441"/>
      <point x="282" y="487"/>
      <point x="282" y="572" type="curve" smooth="yes"/>
      <point x="282" y="659"/>
      <point x="242" y="706"/>
      <point x="170" y="706" type="curve" smooth="yes"/>
    </contour>
    <contour>
      <point x="217" y="670"/>
      <point x="239" y="639"/>
      <point x="239" y="573" type="curve" smooth="yes"/>
      <point x="239" y="508"/>
      <point x="217" y="477"/>
      <point x="168" y="477" type="curve" smooth="yes"/>
      <point x="120" y="477"/>
      <point x="98" y="508"/>
      <point x="98" y="573" type="curve" smooth="yes"/>
      <point x="98" y="640"/>
      <point x="120" y="670"/>
      <point x="168" y="670" type="curve" smooth="yes"/>
    </contour>
  </outline>
</glyph>
<glyph name="multiply" format="1">
  <advance width="560"/>
  <unicode hex="00D7"/>
  <outline>
    <contour>
      <point x="460" y="454"/>
      <point x="456" y="452"/>
      <point x="451" y="447" type="curve" smooth="yes"/>
      <point x="280" y="275" type="line"/>
      <point x="109" y="447" type="line" smooth="yes"/>
      <point x="104" y="452"/>
      <point x="99" y="454"/>
      <point x="95" y="454" type="curve" smooth="yes"/>
      <point x="90" y="454"/>
      <point x="86" y="452"/>
      <point x="81" y="447" type="curve" smooth="yes"/>
      <point x="62" y="427" type="line" smooth="yes"/>
      <point x="57" y="422"/>
      <point x="54" y="417"/>
      <point x="54" y="413" type="curve" smooth="yes"/>
      <point x="54" y="408"/>
      <point x="57" y="404"/>
      <point x="62" y="399" type="curve" smooth="yes"/>
      <point x="233" y="228" type="line"/>
      <point x="62" y="56" type="line" smooth="yes"/>
      <point x="57" y="51"/>
      <point x="54" y="46"/>
      <point x="54" y="42" type="curve" smooth="yes"/>
      <point x="54" y="37"/>
      <point x="57" y="33"/>
      <point x="62" y="28" type="curve"/>
      <point x="81" y="8" type="line" smooth="yes"/>
      <point x="86" y="3"/>
      <point x="90" y="0"/>
      <point x="95" y="0" type="curve" smooth="yes"/>
      <point x="99" y="0"/>
      <point x="104" y="3"/>
      <point x="109" y="8" type="curve" smooth="yes"/>
      <point x="280" y="181" type="line"/>
      <point x="451" y="8" type="line" smooth="yes"/>
      <point x="456" y="3"/>
      <point x="460" y="0"/>
      <point x="465" y="0" type="curve" smooth="yes"/>
      <point x="469" y="0"/>
      <point x="474" y="3"/>
      <point x="479" y="8" type="curve" smooth="yes"/>
      <point x="498" y="28" type="line" smooth="yes"/>
      <point x="503" y="33"/>
      <point x="505" y="37"/>
      <point x="505" y="42" type="curve" smooth="yes"/>
      <point x="505" y="46"/>
      <point x="503" y="51"/>
      <point x="498" y="56" type="curve" smooth="yes"/>
      <point x="327" y="228" type="line"/>
      <point x="498" y="399" type="line" smooth="yes"/>
      <point x="503" y="404"/>
      <point x="505" y="408"/>
      <point x="505" y="413" type="curve" smooth="yes"/>
      <point x="505" y="417"/>
      <point x="503" y="422"/>
      <point x="498" y="427" type="curve" smooth="yes"/>
      <point x="479" y="447" type="line" smooth="yes"/>
      <point x="474" y="452"/>
      <point x="469" y="454"/>
      <point x="465" y="454" type="curve" smooth="yes"/>
    </contour>
  </outline>
</glyph>
<glyph name="thorn" format="1">
  <advance width="570"/>
  <unicode hex="00FE"/>
  <outline>
    <contour>
      <point x="125" y="752" type="line" smooth="yes"/>
      <point x="97" y="752"/>
      <point x="85" y="744"/>
      <point x="85" y="730" type="curve" smooth="yes"/>
      <point x="85" y="-186" type="line" smooth="yes"/>
      <point x="85" y="-200"/>
      <point x="97" y="-208"/>
      <point x="125" y="-208" type="curve" smooth="yes"/>
      <point x="129" y="-208" type="line" smooth="yes"/>
      <point x="157" y="-208"/>
      <point x="169" y="-200"/>
      <point x="169" y="-186" type="curve" smooth="yes"/>
      <point x="169" y="45" type="line"/>
      <point x="208" y="15"/>
      <point x="250" y="-6"/>
      <point x="312" y="-6" type="curve" smooth="yes"/>
      <point x="431" y="-6"/>
      <point x="515" y="88"/>
      <point x="515" y="260" type="curve" smooth="yes"/>
      <point x="515" y="417"/>
      <point x="441" y="529"/>
      <point x="321" y="529" type="curve" smooth="yes"/>
      <point x="267" y="529"/>
      <point x="216" y="507"/>
      <point x="169" y="461" type="curve"/>
      <point x="169" y="730" type="line" smooth="yes"/>
      <point x="169" y="744"/>
      <point x="157" y="752"/>
      <point x="129" y="752" type="curve" smooth="yes"/>
    </contour>
    <contour>
      <point x="383" y="456"/>
      <point x="427" y="383"/>
      <point x="427" y="254" type="curve" smooth="yes"/>
      <point x="427" y="135"/>
      <point x="382" y="70"/>
      <point x="293" y="68" type="curve" smooth="yes"/>
      <point x="247" y="68"/>
      <point x="205" y="83"/>
      <point x="169" y="113" type="curve"/>
      <point x="169" y="387" type="line"/>
      <point x="210" y="432"/>
      <point x="260" y="456"/>
      <point x="304" y="456" type="curve" smooth="yes"/>
    </contour>
  </outline>
</glyph>
<glyph name="dotlessi" format="1">
  <advance width="265"/>
  <unicode hex="0131"/>
  <outline>
    <contour>
      <point x="131" y="525" type="line" smooth="yes"/>
      <point x="103" y="525"/>
      <point x="91" y="517"/>
      <point x="91" y="503" type="curve" smooth="yes"/>
      <point x="91" y="20" type="line" smooth="yes"/>
      <point x="91" y="6"/>
      <point x="103" y="-2"/>
      <point x="131" y="-2" type="curve" smooth="yes"/>
      <point x="135" y="-2" type="line" smooth="yes"/>
      <point x="163" y="-2"/>
      <point x="175" y="6"/>
      <point x="175" y="20" type="curve" smooth="yes"/>
      <point x="175" y="503" type="line" smooth="yes"/>
      <point x="175" y="517"/>
      <point x="163" y="525"/>
      <point x="135" y="525" type="curve" smooth="yes"/>
    </contour>
    <contour>
      <point x="158" y="0" type="move" name="ogonek"/>
    </contour>
    <contour>
      <point x="131" y="0" type="move" name="bottom"/>
    </contour>
    <contour>
      <point x="133" y="523" type="move" name="top"/>
    </contour>
  </outline>
</glyph>
<glyph name="uni018F" format="1">
  <advance width="672"/>
  <unicode hex="018F"/>
  <outline>
    <contour>
      <point x="489" y="-9"/>
      <point x="584" y="106"/>
      <point x="584" y="332" type="curve" smooth="yes"/>
      <point x="584" y="588"/>
      <point x="493" y="706"/>
      <point x="299" y="706" type="curve" smooth="yes"/>
      <point x="162" y="706"/>
      <point x="59" y="654"/>
      <point x="59" y="622" type="curve" smooth="yes"/>
      <point x="59" y="611"/>
      <point x="80" y="572"/>
      <point x="94" y="572" type="curve" smooth="yes"/>
      <point x="110" y="572"/>
      <point x="177" y="634"/>
      <point x="300" y="634" type="curve" smooth="yes"/>
      <point x="423" y="634"/>
      <point x="482" y="551"/>
      <point x="494" y="363" type="curve"/>
      <point x="78" y="363" type="line" smooth="yes"/>
      <point x="66" y="363"/>
      <point x="45" y="334"/>
      <point x="45" y="322" type="curve" smooth="yes"/>
      <point x="45" y="103"/>
      <point x="129" y="-9"/>
      <point x="301" y="-9" type="curve" smooth="yes"/>
    </contour>
    <contour>
      <point x="189" y="63"/>
      <point x="134" y="137"/>
      <point x="134" y="291" type="curve"/>
      <point x="494" y="291" type="line"/>
      <point x="487" y="137"/>
      <point x="421" y="63"/>
      <point x="304" y="63" type="curve" smooth="yes"/>
    </contour>
  </outline>
</glyph>
<glyph name="uni01C7" format="1">
  <advance width="718"/>
  <unicode hex="01C7"/>
  <outline>
    <contour>
      <point x="137" y="702" type="line" smooth="yes"/>
      <point x="109" y="702"/>
      <point x="97" y="694"/>
      <point x="97" y="680" type="curve" smooth="yes"/>
      <point x="97" y="30" type="line" smooth="yes"/>
      <point x="97" y="9"/>
      <point x="106" y="0"/>
      <point x="127" y="0" type="curve" smooth="yes"/>
      <point x="390" y="0" type="line" smooth="yes"/>
      <point x="404" y="0"/>
      <point x="410" y="9"/>
      <point x="410" y="30" type="curve" smooth="yes"/>
      <point x="410" y="46" type="line" smooth="yes"/>
      <point x="410" y="67"/>
      <point x="404" y="76"/>
      <point x="390" y="76" type="curve" smooth="yes"/>
      <point x="185" y="76" type="line"/>
      <point x="185" y="680" type="line" smooth="yes"/>
      <point x="185" y="694"/>
      <point x="173" y="702"/>
      <point x="145" y="702" type="curve" smooth="yes"/>
    </contour>
    <contour>
      <point x="585" y="702" type="line" smooth="yes"/>
      <point x="557" y="702"/>
      <point x="545" y="694"/>
      <point x="545" y="680" type="curve" smooth="yes"/>
      <point x="545" y="45" type="line" smooth="yes"/>
      <point x="545" y="-41"/>
      <point x="504" y="-78"/>
      <point x="405" y="-78" type="curve" smooth="yes"/>
      <point x="373" y="-78"/>
      <point x="350" y="-69"/>
      <point x="342" y="-69" type="curve" smooth="yes"/>
      <point x="326" y="-69"/>
      <point x="320" y="-120"/>
      <point x="320" y="-124" type="curve" smooth="yes"/>
      <point x="320" y="-151"/>
      <point x="383" y="-156"/>
      <point x="421" y="-156" type="curve" smooth="yes"/>
      <point x="575" y="-156"/>
      <point x="633" y="-71"/>
      <point x="633" y="55" type="curve" smooth="yes"/>
      <point x="633" y="680" type="line" smooth="yes"/>
      <point x="633" y="694"/>
      <point x="621" y="702"/>
      <point x="593" y="702" type="curve" smooth="yes"/>
    </contour>
  </outline>
</glyph>
<glyph name="breve" format="1">
  <advance width="320"/>
  <unicode hex="02D8"/>
  <outline>
    <contour>
      <point x="270" y="715"/>
      <point x="273" y="706"/>
      <point x="265" y="690" type="curve" smooth="yes"/>
      <point x="250" y="662"/>
      <point x="207" y="651"/>
      <point x="158" y="651" type="curve" smooth="yes"/>
      <point x="109" y="651"/>
      <point x="65" y="662"/>
      <point x="50" y="690" type="curve" smooth="yes"/>
      <point x="42" y="706"/>
      <point x="45" y="715"/>
      <point x="28" y="715" type="curve" smooth="yes"/>
      <point x="17" y="715"/>
      <point x="13" y="710"/>
      <point x="13" y="700" type="curve" smooth="yes"/>
      <point x="13" y="623"/>
      <point x="86" y="585"/>
      <point x="158" y="585" type="curve" smooth="yes"/>
      <point x="229" y="585"/>
      <point x="302" y="623"/>
      <point x="302" y="700" type="curve" smooth="yes"/>
      <point x="302" y="710"/>
      <point x="298" y="715"/>
      <point x="287" y="715" type="curve" smooth="yes"/>
    </contour>
    <contour>
      <point x="162" y="776" type="move" name="tilde"/>
    </contour>
    <contour>
      <point x="158" y="671" type="move" name="top"/>
    </contour>
    <contour>
      <point x="158" y="523" type="move" name="_top"/>
    </contour>
  </outline>
</glyph>
<glyph name="ogonek" format="1">
  <advance width="320"/>
  <unicode hex="02DB"/>
  <outline>
    <contour>
      <point x="60" y="14"/>
      <point x="54" y="-53"/>
      <point x="54" y="-81" type="curve" smooth="yes"/>
      <point x="54" y="-110"/>
      <point x="65" y="-183"/>
      <point x="172" y="-183" type="curve" smooth="yes"/>
      <point x="222" y="-183"/>
      <point x="254" y="-173"/>
      <point x="254" y="-128" type="curve" smooth="yes"/>
      <point x="254" y="-111"/>
      <point x="247" y="-103"/>
      <point x="235" y="-103" type="curve" smooth="yes"/>
      <point x="219" y="-103"/>
      <point x="198" y="-113"/>
      <point x="183" y="-113" type="curve" smooth="yes"/>
      <point x="160" y="-113"/>
      <point x="121" y="-110"/>
      <point x="121" y="-62" type="curve" smooth="yes"/>
      <point x="121" y="-38"/>
      <point x="133" y="-15"/>
      <point x="133" y="-1" type="curve" smooth="yes"/>
      <point x="133" y="9"/>
      <point x="128" y="14"/>
      <point x="115" y="14" type="curve" smooth="yes"/>
    </contour>
    <contour>
      <point x="133" y="0" type="move" name="_ogonek"/>
    </contour>
    <contour>
      <point x="46" y="-203" type="move" name="bottom"/>
    </contour>
  </outline>
</glyph>
<glyph name="tildecomb" format="1">
  <advance width="0"/>
  <unicode hex="0303"/>
  <outline>
    <component base="tilde" xOffset="-177"/>
    <contour>
      <point x="5" y="700" type="move" name="top"/>
    </contour>
    <contour>
      <point x="6" y="523" type="move" name="_top"/>
    </contour>
  </outline>
</glyph>
<glyph name="daggerdbl" format="1">
  <advance width="535"/>
  <unicode hex="2021"/>
  <outline>
    <contour>
      <point x="267" y="702" type="line"/>
      <point x="238" y="702"/>
      <point x="227" y="694"/>
      <point x="227" y="680" type="curve" smooth="yes"/>
      <point x="227" y="502" type="line"/>
      <point x="69" y="502" type="line" smooth="yes"/>
      <point x="55" y="502"/>
      <point x="49" y="493"/>
      <point x="49" y="472" type="curve" smooth="yes"/>
      <point x="49" y="452" type="line" smooth="yes"/>
      <point x="49" y="431"/>
      <point x="55" y="422"/>
      <point x="69" y="422" type="curve" smooth="yes"/>
      <point x="227" y="422" type="line"/>
      <point x="227" y="140" type="line"/>
      <point x="69" y="140" type="line" smooth="yes"/>
      <point x="55" y="140"/>
      <point x="49" y="131"/>
      <point x="49" y="110" type="curve" smooth="yes"/>
      <point x="49" y="90" type="line" smooth="yes"/>
      <point x="49" y="69"/>
      <point x="55" y="60"/>
      <point x="69" y="60" type="curve"/>
      <point x="227" y="60" type="line"/>
      <point x="227" y="-118" type="line" smooth="yes"/>
      <point x="227" y="-132"/>
      <point x="241" y="-140"/>
      <point x="269" y="-140" type="curve"/>
      <point x="271" y="-140" type="line"/>
      <point x="299" y="-140"/>
      <point x="309" y="-132"/>
      <point x="309" y="-118" type="curve" smooth="yes"/>
      <point x="309" y="60" type="line"/>
      <point x="466" y="60" type="line" smooth="yes"/>
      <point x="480" y="60"/>
      <point x="486" y="69"/>
      <point x="486" y="90" type="curve" smooth="yes"/>
      <point x="486" y="110" type="line" smooth="yes"/>
      <point x="486" y="131"/>
      <point x="480" y="140"/>
      <point x="466" y="140" type="curve" smooth="yes"/>
      <point x="309" y="140" type="line"/>
      <point x="309" y="422" type="line"/>
      <point x="466" y="422" type="line" smooth="yes"/>
      <point x="480" y="422"/>
      <point x="486" y="431"/>
      <point x="486" y="452" type="curve" smooth="yes"/>
      <point x="486" y="472" type="line" smooth="yes"/>
      <point x="486" y="493"/>
      <point x="480" y="502"/>
      <point x="466" y="502" type="curve" smooth="yes"/>
      <point x="309" y="502" type="line"/>
      <point x="309" y="680" type="line" smooth="yes"/>
      <point x="309" y="694"/>
      <point x="297" y="702"/>
      <point x="269" y="702" type="curve"/>
    </contour>
  </outline>
</glyph>
<glyph name="ellipsis" format="1">
  <advance width="617"/>
  <unicode hex="2026"/>
  <outline>
    <contour>
      <point x="508" y="108" type="line" smooth="yes"/>
      <point x="480" y="108"/>
      <point x="468" y="100"/>
      <point x="468" y="86" type="curve" smooth="yes"/>
      <point x="468" y="20" type="line" smooth="yes"/>
      <point x="468" y="6"/>
      <point x="480" y="-2"/>
      <point x="508" y="-2" type="curve" smooth="yes"/>
      <point x="525" y="-2" type="line" smooth="yes"/>
      <point x="553" y="-2"/>
      <point x="565" y="6"/>
      <point x="565" y="20" type="curve" smooth="yes"/>
      <point x="565" y="86" type="line" smooth="yes"/>
      <point x="565" y="100"/>
      <point x="553" y="108"/>
      <point x="525" y="108" type="curve" smooth="yes"/>
    </contour>
    <contour>
      <point x="91" y="108" type="line" smooth="yes"/>
      <point x="63" y="108"/>
      <point x="51" y="100"/>
      <point x="51" y="86" type="curve" smooth="yes"/>
      <point x="51" y="20" type="line" smooth="yes"/>
      <point x="51" y="6"/>
      <point x="63" y="-2"/>
      <point x="91" y="-2" type="curve" smooth="yes"/>
      <point x="108" y="-2" type="line" smooth="yes"/>
      <point x="136" y="-2"/>
      <point x="148" y="6"/>
      <point x="148" y="20" type="curve" smooth="yes"/>
      <point x="148" y="86" type="line" smooth="yes"/>
      <point x="148" y="100"/>
      <point x="136" y="108"/>
      <point x="108" y="108" type="curve" smooth="yes"/>
    </contour>
    <contour>
      <point x="300" y="108" type="line" smooth="yes"/>
      <point x="272" y="108"/>
      <point x="260" y="100"/>
      <point x="260" y="86" type="curve" smooth="yes"/>
      <point x="260" y="20" type="line" smooth="yes"/>
      <point x="260" y="6"/>
      <point x="272" y="-2"/>
      <point x="300" y="-2" type="curve" smooth="yes"/>
      <point x="317" y="-2" type="line" smooth="yes"/>
      <point x="345" y="-2"/>
      <point x="357" y="6"/>
      <point x="357" y="20" type="curve" smooth="yes"/>
      <point x="357" y="86" type="line" smooth="yes"/>
      <point x="357" y="100"/>
      <point x="345" y="108"/>
      <point x="317" y="108" type="curve" smooth="yes"/>
    </contour>
  </outline>
</glyph>
<glyph name="arrowdown" format="1">
  <advance width="529"/>
  <unicode hex="2193"/>
  <outline>
    <contour>
      <point x="259" y="708" type="line" smooth="yes"/>
      <point x="238" y="708"/>
      <point x="229" y="700"/>
      <point x="229" y="686" type="curve" smooth="yes"/>
      <point x="229" y="122" type="line"/>
      <point x="20" y="335" type="line" smooth="yes"/>
      <point x="14" y="341"/>
      <point x="9" y="345"/>
      <point x="6" y="345" type="curve" smooth="yes"/>
      <point x="1" y="345"/>
      <point x="-1" y="338"/>
      <point x="-1" y="326" type="curve" smooth="yes"/>
      <point x="-1" y="271" type="line" smooth="yes"/>
      <point x="-1" y="257"/>
      <point x="3" y="247"/>
      <point x="13" y="237" type="curve"/>
      <point x="246" y="3" type="line" smooth="yes"/>
      <point x="251" y="-2"/>
      <point x="258" y="-4"/>
      <point x="264" y="-4" type="curve" smooth="yes"/>
      <point x="271" y="-4"/>
      <point x="277" y="-2"/>
      <point x="282" y="3" type="curve" smooth="yes"/>
      <point x="514" y="236" type="line" smooth="yes"/>
      <point x="524" y="246"/>
      <point x="528" y="256"/>
      <point x="528" y="270" type="curve" smooth="yes"/>
      <point x="528" y="325" type="line" smooth="yes"/>
      <point x="528" y="337"/>
      <point x="526" y="344"/>
      <point x="521" y="344" type="curve" smooth="yes"/>
      <point x="518" y="344"/>
      <point x="513" y="340"/>
      <point x="507" y="334" type="curve" smooth="yes"/>
      <point x="299" y="122" type="line"/>
      <point x="299" y="686" type="line" smooth="yes"/>
      <point x="299" y="700"/>
      <point x="290" y="708"/>
      <point x="269" y="708" type="curve" smooth="yes"/>
    </contour>
  </outline>
</glyph>
<glyph name="baraccentmedium" format="1">
  <advance width="417"/>
  <outline>
    <contour>
      <point x="27" y="355" type="line" smooth="yes"/>
      <point x="13" y="355"/>
      <point x="7" y="346"/>
      <point x="7" y="325" type="curve" smooth="yes"/>
      <point x="7" y="315" type="line" smooth="yes"/>
      <point x="7" y="294"/>
      <point x="13" y="285"/>
      <point x="27" y="285" type="curve"/>
      <point x="390" y="285" type="line" smooth="yes"/>
      <point x="404" y="285"/>
      <point x="410" y="294"/>
      <point x="410" y="315" type="curve" smooth="yes"/>
      <point x="410" y="325" type="line" smooth="yes"/>
      <point x="410" y="346"/>
      <point x="404" y="355"/>
      <point x="390" y="355" type="curve" smooth="yes"/>
    </contour>
    <contour>
      <point x="205" y="317" type="move" name="_center"/>
    </contour>
  </outline>
</glyph>
<glyph name="g.ss01" format="1">
  <advance width="546"/>
  <outline>
    <contour>
      <point x="116" y="529"/>
      <point x="34" y="421"/>
      <point x="34" y="263" type="curve" smooth="yes"/>
      <point x="34" y="139"/>
      <point x="88" y="0"/>
      <point x="231" y="0" type="curve" smooth="yes"/>
      <point x="299" y="0"/>
      <point x="361" y="38"/>
      <point x="392" y="140" type="curve"/>
      <point x="380" y="152" type="line"/>
      <point x="380" y="84" type="line"/>
      <point x="380" y="-77"/>
      <point x="336" y="-140"/>
      <point x="244" y="-140" type="curve" smooth="yes"/>
      <point x="140" y="-140"/>
      <point x="93" y="-86"/>
      <point x="81" y="-86" type="curve" smooth="yes"/>
      <point x="77" y="-86"/>
      <point x="71" y="-90"/>
      <point x="71" y="-116" type="curve" smooth="yes"/>
      <point x="71" y="-123"/>
      <point x="71" y="-131"/>
      <point x="72" y="-141" type="curve" smooth="yes"/>
      <point x="76" y="-171"/>
      <point x="150" y="-212"/>
      <point x="252" y="-212" type="curve" smooth="yes"/>
      <point x="395" y="-212"/>
      <point x="463" y="-140"/>
      <point x="463" y="99" type="curve" smooth="yes"/>
      <point x="464" y="504" type="line"/>
      <point x="462" y="517"/>
      <point x="456" y="525"/>
      <point x="436" y="525" type="curve" smooth="yes"/>
      <point x="430" y="525" type="line" smooth="yes"/>
      <point x="402" y="525"/>
      <point x="398" y="504"/>
      <point x="391" y="475" type="curve"/>
      <point x="366" y="496"/>
      <point x="317" y="529"/>
      <point x="253" y="529" type="curve" smooth="yes"/>
    </contour>
    <contour>
      <point x="321" y="456"/>
      <point x="360" y="432"/>
      <point x="382" y="417" type="curve"/>
      <point x="381" y="401"/>
      <point x="379" y="385"/>
      <point x="379" y="367" type="curve"/>
      <point x="379" y="244" type="line"/>
      <point x="351" y="110"/>
      <point x="287" y="73"/>
      <point x="242" y="73" type="curve" smooth="yes"/>
      <point x="143" y="73"/>
      <point x="120" y="175"/>
      <point x="120" y="272" type="curve" smooth="yes"/>
      <point x="120" y="371"/>
      <point x="154" y="456"/>
      <point x="269" y="456" type="curve" smooth="yes"/>
    </contour>
    <contour>
      <point x="260" y="523" type="move" name="top"/>
    </contour>
  </outline>
</glyph>
<glyph name="hookabovecomb.alt" format="1">
  <advance width="300"/>
  <outline>
    <contour>
      <point x="23" y="623"/>
      <point x="12" y="611"/>
      <point x="-8" y="600" type="curve" smooth="yes"/>
      <point x="-24" y="591"/>
      <point x="-33" y="586"/>
      <point x="-33" y="578" type="curve" smooth="yes"/>
      <point x="-33" y="569"/>
      <point x="-17" y="558"/>
      <point x="4" y="558" type="curve" smooth="yes"/>
      <point x="10" y="558"/>
      <point x="31" y="568"/>
      <point x="45" y="580" type="curve" smooth="yes"/>
      <point x="62" y="594"/>
      <point x="80" y="613"/>
      <point x="80" y="644" type="curve" smooth="yes"/>
      <point x="80" y="696"/>
      <point x="28" y="712"/>
      <point x="-6" y="712" type="curve" smooth="yes"/>
      <point x="-41" y="712"/>
      <point x="-84" y="697"/>
      <point x="-84" y="684" type="curve" smooth="yes"/>
      <point x="-84" y="674"/>
      <point x="-68" y="651"/>
      <point x="-60" y="651" type="curve" smooth="yes"/>
      <point x="-55" y="651"/>
      <point x="-45" y="664"/>
      <point x="-14" y="664" type="curve" smooth="yes"/>
      <point x="6" y="664"/>
      <point x="23" y="655"/>
      <point x="23" y="637" type="curve" smooth="yes"/>
    </contour>
    <contour>
      <point x="1" y="700" type="move" name="top"/>
    </contour>
    <contour>
      <point x="0" y="562" type="move" name="_top"/>
    </contour>
  </outline>
</glyph>
